/* XPM */
static char * mindyFacialIcon_xpm[] = {
"32 32 962 2",
"  	c #482E31",
". 	c #492D2A",
"+ 	c #462D2B",
"@ 	c #452F31",
"# 	c #472F32",
"$ 	c #452D2E",
"% 	c #442B2E",
"& 	c #522E34",
"* 	c #4B2C2D",
"= 	c #402D33",
"- 	c #432832",
"; 	c #503230",
"> 	c #583639",
", 	c #61343C",
"' 	c #935E52",
") 	c #B78156",
"! 	c #AD7651",
"~ 	c #81462E",
"{ 	c #682F1B",
"] 	c #551E12",
"^ 	c #532118",
"/ 	c #512019",
"( 	c #5D2D19",
"_ 	c #985E51",
": 	c #824E42",
"< 	c #74342B",
"[ 	c #843F30",
"} 	c #BC8573",
"| 	c #4D3033",
"1 	c #482F31",
"2 	c #482D32",
"3 	c #4B2E31",
"4 	c #4B2D2F",
"5 	c #532F2D",
"6 	c #6A3124",
"7 	c #693A2F",
"8 	c #3F282F",
"9 	c #452D34",
"0 	c #402A2F",
"a 	c #4C3033",
"b 	c #5B3140",
"c 	c #885748",
"d 	c #AB794D",
"e 	c #8D5C39",
"f 	c #753E27",
"g 	c #753F2D",
"h 	c #683527",
"i 	c #673628",
"j 	c #5F3022",
"k 	c #7A4932",
"l 	c #8C5143",
"m 	c #5F2A1D",
"n 	c #7E453A",
"o 	c #83483B",
"p 	c #DAAB91",
"q 	c #482E2F",
"r 	c #442A2E",
"s 	c #4A2E32",
"t 	c #4C2D2E",
"u 	c #522C28",
"v 	c #62342A",
"w 	c #764230",
"x 	c #874A38",
"y 	c #7B402D",
"z 	c #693D34",
"A 	c #4C282C",
"B 	c #51312B",
"C 	c #523033",
"D 	c #532D30",
"E 	c #73463F",
"F 	c #8A5838",
"G 	c #743C25",
"H 	c #783E2A",
"I 	c #592313",
"J 	c #552114",
"K 	c #4F2015",
"L 	c #4F2317",
"M 	c #6D3D2D",
"N 	c #5E241A",
"O 	c #AB7B72",
"P 	c #9B695C",
"Q 	c #8E604E",
"R 	c #DEB698",
"S 	c #472D2E",
"T 	c #483232",
"U 	c #462B2A",
"V 	c #4F2E26",
"W 	c #693A2A",
"X 	c #81472F",
"Y 	c #965C47",
"Z 	c #96664F",
"` 	c #763928",
" .	c #743121",
"..	c #7E4A33",
"+.	c #743E34",
"@.	c #623333",
"#.	c #5A3226",
"$.	c #522424",
"%.	c #70361E",
"&.	c #71291C",
"*.	c #732F1F",
"=.	c #602114",
"-.	c #5B2118",
";.	c #58241E",
">.	c #54231C",
",.	c #562214",
"'.	c #60241C",
").	c #8D5A4F",
"!.	c #885846",
"~.	c #A77C62",
"{.	c #DBB896",
"].	c #442627",
"^.	c #462D2D",
"/.	c #3E2624",
"(.	c #4F3730",
"_.	c #51423B",
":.	c #5F3630",
"<.	c #703327",
"[.	c #8C543F",
"}.	c #8D553D",
"|.	c #945A42",
"1.	c #864831",
"2.	c #7C3A28",
"3.	c #6F2C1E",
"4.	c #66291C",
"5.	c #763D2F",
"6.	c #814631",
"7.	c #864A37",
"8.	c #894D3A",
"9.	c #793B2C",
"0.	c #6F3323",
"a.	c #6B3122",
"b.	c #63271B",
"c.	c #60261A",
"d.	c #572518",
"e.	c #4F2417",
"f.	c #4D1C1B",
"g.	c #5B261B",
"h.	c #824B3D",
"i.	c #82483D",
"j.	c #B08573",
"k.	c #DEB292",
"l.	c #482B2D",
"m.	c #4C3230",
"n.	c #6D574D",
"o.	c #776153",
"p.	c #7A6955",
"q.	c #673C2B",
"r.	c #733926",
"s.	c #7F4A2F",
"t.	c #8E583E",
"u.	c #793D2B",
"v.	c #662718",
"w.	c #672317",
"x.	c #702D21",
"y.	c #66271A",
"z.	c #5F2217",
"A.	c #67291D",
"B.	c #793E32",
"C.	c #743D31",
"D.	c #774436",
"E.	c #69392B",
"F.	c #6E2F22",
"G.	c #6E392B",
"H.	c #613525",
"I.	c #4B2415",
"J.	c #4A2113",
"K.	c #4A1E17",
"L.	c #592317",
"M.	c #793C2F",
"N.	c #7E4136",
"O.	c #BD9480",
"P.	c #DCA98E",
"Q.	c #46282D",
"R.	c #482A2D",
"S.	c #5D453F",
"T.	c #715B4C",
"U.	c #79654F",
"V.	c #856E57",
"W.	c #6F412F",
"X.	c #703624",
"Y.	c #7A4430",
"Z.	c #632B1B",
"`.	c #5F1E15",
" +	c #641F18",
".+	c #631F17",
"++	c #652219",
"@+	c #67271D",
"#+	c #5E2418",
"$+	c #592318",
"%+	c #4F1C13",
"&+	c #522019",
"*+	c #511F14",
"=+	c #5B261C",
"-+	c #692A22",
";+	c #4C1D14",
">+	c #432116",
",+	c #45241B",
"'+	c #4D231B",
")+	c #482116",
"!+	c #572115",
"~+	c #6E2E23",
"{+	c #6A2920",
"]+	c #BA927B",
"^+	c #D69E86",
"/+	c #4A2C30",
"(+	c #4B2E30",
"_+	c #604842",
":+	c #715B4B",
"<+	c #79654E",
"[+	c #7B5F4C",
"}+	c #6B3A2C",
"|+	c #753A2C",
"1+	c #5A2316",
"2+	c #551A14",
"3+	c #601C19",
"4+	c #621F19",
"5+	c #632219",
"6+	c #5E1E16",
"7+	c #5D2017",
"8+	c #60281D",
"9+	c #532517",
"0+	c #4D1E15",
"a+	c #4F1F15",
"b+	c #541F14",
"c+	c #571E10",
"d+	c #5E241B",
"e+	c #4A1D17",
"f+	c #3F1A14",
"g+	c #4B201A",
"h+	c #51291F",
"i+	c #56261A",
"j+	c #61281D",
"k+	c #6C3127",
"l+	c #AA816C",
"m+	c #CB947F",
"n+	c #492A2F",
"o+	c #472A2D",
"p+	c #583F3B",
"q+	c #6D574A",
"r+	c #735E48",
"s+	c #7C624B",
"t+	c #714130",
"u+	c #642919",
"v+	c #5E2517",
"w+	c #591B16",
"x+	c #5E1A15",
"y+	c #5D1B13",
"z+	c #62231A",
"A+	c #5E2319",
"B+	c #592014",
"C+	c #5C2317",
"D+	c #5D2518",
"E+	c #542317",
"F+	c #512419",
"G+	c #5C2E1D",
"H+	c #6B3B23",
"I+	c #6B3823",
"J+	c #5D2F1F",
"K+	c #4F2319",
"L+	c #491E13",
"M+	c #552918",
"N+	c #4E241E",
"O+	c #4E2116",
"P+	c #603329",
"Q+	c #77423C",
"R+	c #8F6452",
"S+	c #BB8A74",
"T+	c #472A2E",
"U+	c #4B3033",
"V+	c #472D30",
"W+	c #5D4441",
"X+	c #6B524D",
"Y+	c #6A4637",
"Z+	c #63341F",
"`+	c #662B1B",
" @	c #601F19",
".@	c #622014",
"+@	c #7F4130",
"@@	c #9C6651",
"#@	c #8B543F",
"$@	c #8B5340",
"%@	c #7B3F38",
"&@	c #60201E",
"*@	c #5A2719",
"=@	c #5B2D1D",
"-@	c #6A3B2C",
";@	c #5D2F18",
">@	c #794730",
",@	c #8A563D",
"'@	c #7B4731",
")@	c #86523C",
"!@	c #693D33",
"~@	c #4D261D",
"{@	c #422017",
"]@	c #4C231B",
"^@	c #8E5D50",
"/@	c #A97469",
"(@	c #472C2F",
"_@	c #462C2F",
":@	c #472D2D",
"<@	c #49312C",
"[@	c #664131",
"}@	c #6A3523",
"|@	c #672618",
"1@	c #5D1F16",
"2@	c #B0776A",
"3@	c #E2AE99",
"4@	c #DA9A86",
"5@	c #D68073",
"6@	c #CA746A",
"7@	c #A16157",
"8@	c #815047",
"9@	c #5C271E",
"0@	c #5C2920",
"a@	c #56271C",
"b@	c #4D2217",
"c@	c #50281A",
"d@	c #4E2B1F",
"e@	c #512A1E",
"f@	c #572D1F",
"g@	c #4F261B",
"h@	c #4A1F15",
"i@	c #421D14",
"j@	c #401D15",
"k@	c #3F170E",
"l@	c #7B4C3E",
"m@	c #956256",
"n@	c #442A2D",
"o@	c #472B2F",
"p@	c #4A2D32",
"q@	c #4A2E2B",
"r@	c #613829",
"s@	c #6C3326",
"t@	c #611F13",
"u@	c #9A5F50",
"v@	c #AA7968",
"w@	c #AB7261",
"x@	c #C07D6E",
"y@	c #C1766A",
"z@	c #B97269",
"A@	c #A26760",
"B@	c #94645E",
"C@	c #70423E",
"D@	c #5F2D28",
"E@	c #592923",
"F@	c #472219",
"G@	c #3B1F15",
"H@	c #321411",
"I@	c #3A1912",
"J@	c #44201A",
"K@	c #411C16",
"L@	c #3C1917",
"M@	c #411B12",
"N@	c #3E1B12",
"O@	c #401F16",
"P@	c #411B13",
"Q@	c #62352A",
"R@	c #89584E",
"S@	c #482E30",
"T@	c #492A2E",
"U@	c #4B2D2E",
"V@	c #5B3328",
"W@	c #663129",
"X@	c #692D21",
"Y@	c #A06B55",
"Z@	c #9A6551",
"`@	c #73392C",
" #	c #662B22",
".#	c #75443E",
"+#	c #906562",
"@#	c #8F6463",
"##	c #906261",
"$#	c #784742",
"%#	c #5B2D25",
"&#	c #45221A",
"*#	c #422821",
"=#	c #361812",
"-#	c #3B1911",
";#	c #401B14",
">#	c #411C15",
",#	c #3A1612",
"'#	c #3D1A13",
")#	c #391810",
"!#	c #3B1A11",
"~#	c #3F1B12",
"{#	c #51271F",
"]#	c #83534C",
"^#	c #4C2E33",
"/#	c #4B2C31",
"(#	c #4E2E31",
"_#	c #542E28",
":#	c #532722",
"<#	c #C29484",
"[#	c #E6B497",
"}#	c #D79781",
"|#	c #B57066",
"1#	c #7D4338",
"2#	c #69362E",
"3#	c #865751",
"4#	c #926460",
"5#	c #926161",
"6#	c #8C5856",
"7#	c #835149",
"8#	c #5C3125",
"9#	c #49251A",
"0#	c #41221A",
"a#	c #3B1E17",
"b#	c #3E1E15",
"c#	c #3A180F",
"d#	c #3D1B12",
"e#	c #3F1C17",
"f#	c #3A1914",
"g#	c #391913",
"h#	c #401C13",
"i#	c #502A21",
"j#	c #794C44",
"k#	c #492F33",
"l#	c #4B2D32",
"m#	c #4B2D30",
"n#	c #492B2D",
"o#	c #49282D",
"p#	c #503136",
"q#	c #6E4943",
"r#	c #E2B79D",
"s#	c #D89F81",
"t#	c #BF7A69",
"u#	c #AF6A5E",
"v#	c #99594F",
"w#	c #995E5A",
"x#	c #8C5D59",
"y#	c #905F59",
"z#	c #905750",
"A#	c #7D4740",
"B#	c #89554F",
"C#	c #5F3126",
"D#	c #482118",
"E#	c #472623",
"F#	c #3D201A",
"G#	c #4C2B26",
"H#	c #431D1A",
"I#	c #421C1A",
"J#	c #4B2423",
"K#	c #2F1711",
"L#	c #341913",
"M#	c #381910",
"N#	c #4F281E",
"O#	c #70463B",
"P#	c #462C30",
"Q#	c #4F2F34",
"R#	c #482A2F",
"S#	c #976F66",
"T#	c #D09780",
"U#	c #C6856C",
"V#	c #B16F5F",
"W#	c #9B5A4C",
"X#	c #A66458",
"Y#	c #9D605E",
"Z#	c #8F5E5D",
"`#	c #976762",
" $	c #89534C",
".$	c #592821",
"+$	c #885853",
"@$	c #5B3125",
"#$	c #452116",
"$$	c #42231F",
"%$	c #40211C",
"&$	c #502E29",
"*$	c #512A28",
"=$	c #522A2A",
"-$	c #502928",
";$	c #2D1711",
">$	c #321812",
",$	c #371911",
"'$	c #411D14",
")$	c #4F281D",
"!$	c #643B30",
"~$	c #442A2C",
"{$	c #48292F",
"]$	c #472B30",
"^$	c #472E32",
"/$	c #4D2F30",
"($	c #54362D",
"_$	c #B7877B",
":$	c #D18A7A",
"<$	c #BD7464",
"[$	c #975B4F",
"}$	c #9A584B",
"|$	c #AE675C",
"1$	c #9E615E",
"2$	c #976564",
"3$	c #93615E",
"4$	c #83504B",
"5$	c #471F16",
"6$	c #4C231D",
"7$	c #522D20",
"8$	c #422315",
"9$	c #3C1E16",
"0$	c #3E211B",
"a$	c #43221D",
"b$	c #472421",
"c$	c #4D2A28",
"d$	c #482423",
"e$	c #2E1812",
"f$	c #321811",
"g$	c #371810",
"h$	c #421E16",
"i$	c #502A1F",
"j$	c #653C31",
"k$	c #492E2E",
"l$	c #4A2B31",
"m$	c #4B2F34",
"n$	c #482E2D",
"o$	c #583731",
"p$	c #B08677",
"q$	c #8B5647",
"r$	c #B36F63",
"s$	c #A86459",
"t$	c #9C6056",
"u$	c #9F5B4F",
"v$	c #A96259",
"w$	c #99605C",
"x$	c #925F5E",
"y$	c #85524E",
"z$	c #835048",
"A$	c #4F251D",
"B$	c #441D16",
"C$	c #4D2C1D",
"D$	c #452517",
"E$	c #3B1C15",
"F$	c #361B14",
"G$	c #371813",
"H$	c #361612",
"I$	c #371915",
"J$	c #371916",
"K$	c #2F1812",
"L$	c #301610",
"M$	c #452118",
"N$	c #512B20",
"O$	c #63392C",
"P$	c #4A2F2F",
"Q$	c #492A30",
"R$	c #47292D",
"S$	c #593932",
"T$	c #D0A795",
"U$	c #AC7061",
"V$	c #612A19",
"W$	c #9D6559",
"X$	c #93534A",
"Y$	c #AA5F57",
"Z$	c #A26058",
"`$	c #905E5A",
" %	c #855350",
".%	c #86514B",
"+%	c #875347",
"@%	c #86554D",
"#%	c #542922",
"$%	c #563224",
"%%	c #47261A",
"&%	c #401D1B",
"*%	c #311710",
"=%	c #351A13",
"-%	c #361813",
";%	c #321612",
">%	c #311813",
",%	c #301913",
"'%	c #30150F",
")%	c #47231A",
"!%	c #532C22",
"~%	c #663C2E",
"{%	c #482D2D",
"]%	c #A48275",
"^%	c #DCAB94",
"/%	c #CF8979",
"(%	c #905544",
"_%	c #5A2E1E",
":%	c #754237",
"<%	c #9D5C53",
"[%	c #B0655F",
"}%	c #9B5F59",
"|%	c #865850",
"1%	c #86554E",
"2%	c #8B544C",
"3%	c #8F574E",
"4%	c #905850",
"5%	c #713F38",
"6%	c #593326",
"7%	c #46241A",
"8%	c #401C1A",
"9%	c #351813",
"0%	c #351814",
"a%	c #331915",
"b%	c #341B16",
"c%	c #301814",
"d%	c #2F150E",
"e%	c #391B14",
"f%	c #472318",
"g%	c #562F22",
"h%	c #6D3E33",
"i%	c #4B2E32",
"j%	c #4A2D30",
"k%	c #45282B",
"l%	c #C3A18C",
"m%	c #DAA08B",
"n%	c #D48976",
"o%	c #BC7665",
"p%	c #A16658",
"q%	c #8B554C",
"r%	c #9F5C53",
"s%	c #AB6A64",
"t%	c #8B544F",
"u%	c #87544B",
"v%	c #875348",
"w%	c #925852",
"x%	c #9B5C59",
"y%	c #965D56",
"z%	c #7D463E",
"A%	c #5B3127",
"B%	c #422117",
"C%	c #3C1913",
"D%	c #351714",
"E%	c #341814",
"F%	c #2D1813",
"G%	c #2E130F",
"H%	c #3D1F17",
"I%	c #4C281E",
"J%	c #5E362B",
"K%	c #74423D",
"L%	c #4A2D31",
"M%	c #4F3235",
"N%	c #D5B09D",
"O%	c #D49883",
"P%	c #C67E69",
"Q%	c #AF6F61",
"R%	c #A15E56",
"S%	c #9D6657",
"T%	c #BB766E",
"U%	c #97605C",
"V%	c #875551",
"W%	c #8D5650",
"X%	c #935851",
"Y%	c #955854",
"Z%	c #9B605C",
"`%	c #975E57",
" &	c #864F47",
".&	c #582E24",
"+&	c #432219",
"@&	c #391510",
"#&	c #351914",
"$&	c #331812",
"%&	c #321712",
"&&	c #311711",
"*&	c #2C160D",
"=&	c #3B1B19",
"-&	c #492215",
";&	c #532822",
">&	c #704641",
",&	c #84544E",
"'&	c #462B2F",
")&	c #482B2F",
"!&	c #4C2F32",
"~&	c #CDA694",
"{&	c #C48672",
"]&	c #B87460",
"^&	c #A7685C",
"/&	c #A3695D",
"(&	c #D2897C",
"_&	c #A36860",
":&	c #8F5F5B",
"<&	c #6C3C36",
"[&	c #7D4840",
"}&	c #935852",
"|&	c #965A56",
"1&	c #965C58",
"2&	c #945A56",
"3&	c #8E574F",
"4&	c #592F25",
"5&	c #45241C",
"6&	c #361913",
"7&	c #351812",
"8&	c #3A1910",
"9&	c #431F13",
"0&	c #4C1E19",
"a&	c #683731",
"b&	c #8C5C53",
"c&	c #87574B",
"d&	c #482C30",
"e&	c #492C30",
"f&	c #4A2C2F",
"g&	c #C29A88",
"h&	c #C07F6B",
"i&	c #A6675B",
"j&	c #AB685C",
"k&	c #CC8A7C",
"l&	c #B66D66",
"m&	c #905E56",
"n&	c #845550",
"o&	c #4B1C15",
"p&	c #6D3C33",
"q&	c #8F5A54",
"r&	c #935A57",
"s&	c #925854",
"t&	c #945B57",
"u&	c #5B322A",
"v&	c #43221A",
"w&	c #3C1915",
"x&	c #361911",
"y&	c #381B12",
"z&	c #3B1B13",
"A&	c #3C1C14",
"B&	c #3C1C15",
"C&	c #45201A",
"D&	c #482622",
"E&	c #664450",
"F&	c #7C5458",
"G&	c #875851",
"H&	c #83554C",
"I&	c #4A2F33",
"J&	c #482B2E",
"K&	c #492B2E",
"L&	c #AB8270",
"M&	c #A05D4A",
"N&	c #9C625B",
"O&	c #90483A",
"P&	c #B45D53",
"Q&	c #9D675E",
"R&	c #915C58",
"S&	c #8F5B57",
"T&	c #91605C",
"U&	c #80594F",
"V&	c #3A1208",
"W&	c #4B1A15",
"X&	c #7C4441",
"Y&	c #8C524E",
"Z&	c #915954",
"`&	c #5E352D",
" *	c #46251D",
".*	c #44211D",
"+*	c #391811",
"@*	c #3B1A13",
"#*	c #3F1C16",
"$*	c #411E18",
"%*	c #472622",
"&*	c #6B5164",
"**	c #625164",
"=*	c #694F63",
"-*	c #835B5C",
";*	c #855956",
">*	c #452B2C",
",*	c #8A6563",
"'*	c #9E6554",
")*	c #9A6054",
"!*	c #975D51",
"~*	c #8A4F45",
"{*	c #8E5D59",
"]*	c #8C5B57",
"^*	c #956261",
"/*	c #92605F",
"(*	c #7C4B47",
"_*	c #63342C",
":*	c #7E5149",
"<*	c #7E4E4A",
"[*	c #673936",
"}*	c #4A251F",
"|*	c #391C15",
"1*	c #351911",
"2*	c #3B1C16",
"3*	c #3F211D",
"4*	c #392322",
"5*	c #2A1C1E",
"6*	c #5A4D5D",
"7*	c #6D5978",
"8*	c #634F5F",
"9*	c #6A5267",
"0*	c #7C5962",
"a*	c #7D5A62",
"b*	c #42272A",
"c*	c #442A2B",
"d*	c #492F32",
"e*	c #5B3A39",
"f*	c #BE8879",
"g*	c #7B3F35",
"h*	c #7C4338",
"i*	c #895349",
"j*	c #8C5750",
"k*	c #8D5755",
"l*	c #8E5A5D",
"m*	c #925F66",
"n*	c #915F63",
"o*	c #915D5E",
"p*	c #925F5B",
"q*	c #905F58",
"r*	c #80504B",
"s*	c #6D3C38",
"t*	c #6F413C",
"u*	c #58322D",
"v*	c #381A10",
"w*	c #381B13",
"x*	c #3A201D",
"y*	c #352224",
"z*	c #2B2228",
"A*	c #453438",
"B*	c #705970",
"C*	c #635365",
"D*	c #64556F",
"E*	c #715B6D",
"F*	c #705562",
"G*	c #452C2F",
"H*	c #452C30",
"I*	c #412223",
"J*	c #AB7B71",
"K*	c #985A51",
"L*	c #834C42",
"M*	c #704035",
"N*	c #774740",
"O*	c #794440",
"P*	c #8C5753",
"Q*	c #8F5E57",
"R*	c #8F5D58",
"S*	c #905D5B",
"T*	c #925D5C",
"U*	c #8A5553",
"V*	c #7E4941",
"W*	c #79463F",
"X*	c #70413B",
"Y*	c #663E37",
"Z*	c #543127",
"`*	c #3E241C",
" =	c #3B211D",
".=	c #392526",
"+=	c #31252B",
"@=	c #2C272F",
"#=	c #352530",
"$=	c #69526D",
"%=	c #69536D",
"&=	c #68516B",
"*=	c #6F4E61",
"==	c #7F5254",
"-=	c #42292D",
";=	c #412728",
">=	c #452D30",
",=	c #855A56",
"'=	c #895549",
")=	c #7C473E",
"!=	c #895750",
"~=	c #895752",
"{=	c #86544F",
"]=	c #895553",
"^=	c #8B5A56",
"/=	c #87574F",
"(=	c #825348",
"_=	c #805345",
":=	c #7D4F42",
"<=	c #7D4D46",
"[=	c #764C46",
"}=	c #714C47",
"|=	c #573B39",
"1=	c #4D3532",
"2=	c #3D2B2B",
"3=	c #38262B",
"4=	c #392B34",
"5=	c #342832",
"6=	c #322A32",
"7=	c #392E3C",
"8=	c #5F4C68",
"9=	c #6C5571",
"0=	c #6E5166",
"a=	c #7B5160",
"b=	c #8A4E47",
"c=	c #462D31",
"d=	c #472C2D",
"e=	c #41272B",
"f=	c #643C3A",
"g=	c #8D5E51",
"h=	c #8A564D",
"i=	c #905553",
"j=	c #8A5350",
"k=	c #83534B",
"l=	c #845149",
"m=	c #7F4E45",
"n=	c #7A4E47",
"o=	c #6A3F3F",
"p=	c #5C3235",
"q=	c #6F4A47",
"r=	c #4F3233",
"s=	c #453237",
"t=	c #362E36",
"u=	c #322E3A",
"v=	c #302531",
"w=	c #2F2331",
"x=	c #392D3C",
"y=	c #372A36",
"z=	c #3A2C34",
"A=	c #3A3134",
"B=	c #4E3E51",
"C=	c #705D77",
"D=	c #6C5768",
"E=	c #765566",
"F=	c #824F4D",
"G=	c #442B30",
"H=	c #422B2E",
"I=	c #412B2A",
"J=	c #41282B",
"K=	c #43282E",
"L=	c #523131",
"M=	c #664041",
"N=	c #6A4B47",
"O=	c #845856",
"P=	c #7F4D45",
"Q=	c #77443A",
"R=	c #734843",
"S=	c #4C3034",
"T=	c #351C27",
"U=	c #3E252C",
"V=	c #3B2528",
"W=	c #3D2428",
"X=	c #38282B",
"Y=	c #424149",
"Z=	c #32323B",
"`=	c #382F32",
" -	c #31262C",
".-	c #30242E",
"+-	c #392D3A",
"@-	c #392D3B",
"#-	c #392D39",
"$-	c #3C2F40",
"%-	c #413141",
"&-	c #645568",
"*-	c #6D5D72",
"=-	c #6D5461",
"--	c #74453A",
";-	c #482B32",
">-	c #45282E",
",-	c #4A2E31",
"'-	c #482B30",
")-	c #462B32",
"!-	c #482C29",
"~-	c #482A31",
"{-	c #3B1D1B",
"]-	c #B68072",
"^-	c #955C50",
"/-	c #764740",
"(-	c #6E4642",
"_-	c #3E2426",
":-	c #432932",
"<-	c #432930",
"[-	c #3E272A",
"}-	c #42292C",
"|-	c #3D2D31",
"1-	c #524F59",
"2-	c #403F48",
"3-	c #32292D",
"4-	c #31262D",
"5-	c #322630",
"6-	c #3B2F3D",
"7-	c #3B2F3B",
"8-	c #3A2E3B",
"9-	c #3E303D",
"0-	c #514354",
"a-	c #6F5F75",
"b-	c #6F5567",
"c-	c #754542",
"          . + @ # $ % & * = - ; > , ' ) ! ~ { ] ^ / ( _ : < [ } ",
"          | 1 2 3 4 5 6 7 8 9 0 a b c d e f g h i j k l m n o p ",
"q q q q q r s t u v w x y z A B C D E F G H I J K L M N O P Q R ",
"S S S S S T U V W X Y Z `  ...+.@.#.$.%.&.*.=.-.;.>.,.'.).!.~.{.",
"].4 ^./.(._.:.<.[.}.|.1.2.3.4.5.6.7.8.9.0.a.b.c.d.e.f.g.h.i.j.k.",
"4 l.m.n.o.p.q.r.s.t.u.v.w.x.y.z.A.B.C.D.E.F.G.H.I.J.K.L.M.N.O.P.",
"Q.R.S.T.U.V.W.X.Y.Z.`. +.+++@+#+$+%+&+*+=+-+;+>+,+'+)+!+~+{+]+^+",
"/+(+_+:+<+[+}+|+1+2+3+4+5+6+7+8+9+0+a+b+c+d+e+f+f+g+h+i+j+k+l+m+",
"n+o+p+q+r+s+t+u+v+w+x+y+z+A+B+C+D+E+F+G+H+I+J+K+L+M+N+O+P+Q+R+S+",
"T+U+V+W+X+Y+Z+`+ @.@+@@@#@$@%@&@z.*@=@-@,.;@>@,@'@)@!@~@{@]@^@/@",
"(@_@_@:@<@[@}@|@1@2@3@4@5@6@7@8@9@0@a@b@c@d@e@f@b@g@h@i@j@k@l@m@",
"n@o@p@(+q@r@s@t@u@v@w@x@y@z@A@B@C@D@E@F@G@H@I@J@K@L@M@N@O@P@Q@R@",
"S@n@p@T@U@V@W@X@Y@Z@`@ #W@.#+#@###$#%#&#*#=#-#;#>#,#'#)#!#~#{#]#",
"S@_@^#/#(#_#:#<#[#}#|#1#2#3#4#5#6#7#8#9#0#a#b#c#d#e#f#g#!#h#i#j#",
"k#l#m#n#o#p#q#r#s#t#u#v#w#x#y#z#A#B#C#D#E#F#G#H#I#J#K#L#M#h#N#O#",
"P#Q#R#V+n+o+S#T#U#V#W#X#Y#Z#`# $.$+$@$#$$$%$&$*$=$-$;$>$,$'$)$!$",
"~${$]$^$/$($_$:$<$[$}$|$1$2$3$4$5$6$7$8$9$0$a$b$c$d$e$f$g$h$i$j$",
"k$l$m$n$o$p$q$r$s$t$u$v$w$x$y$z$A$B$C$D$E$F$G$H$I$J$K$L$,$M$N$O$",
"P$Q$R$S$T$U$V$D.W$X$Y$Z$`$ %.%+%@%#%$%%%&%*%=%-%;%>%,%'%,$)%!%~%",
"{%n+R$]%^%/%(%_%:%<%[%}%|%1%2%3%4%5%6%7%8%>$9%0%a%b%c%d%e%f%g%h%",
"i%j%k%l%m%n%o%p%q%r%s%t%u%v%w%x%y%z%A%B%C%D%0%0%E%0%F%G%H%I%J%K%",
"L%o+M%N%O%P%Q%R%S%T%U%V%W%X%Y%Z%`% &.&+&@&#&9%$&%&&&*&=&-&;&>&,&",
"'&)&!&~&{&]&^&/&(&_&:&<&[&}&|&1&2&3&4&5&,#=%6&7&7&7&8&9&0&a&b&c&",
"d&e&f&g&h&i&j&k&l&m&x#n&o&p&q&r&s&t&u&v&w&x&y&z&A&B&C&D&E&F&G&H&",
"I&J&K&L&M&N&O&P&Q&R&S&T&U&V&W&X&Y&Z&`& *.*+*@*#*$*C&%*&***=*-*;*",
"j%>*(@,*'*)*!*~*w%{*]*T&^*/*(*_*:*<*[*}*|*1*2*3*4*5*6*7*8*9*0*a*",
"b*c*d*e*f*g*h*i*j*k*l*m*n*o*p*q*r*s*t*u*H%v*w*x*y*z*A*B*C*D*E*F*",
"G*c*H*I*J*K*L*M*N*O*P*Q*R*S*T*U*V*W*X*Y*Z*`* =.=+=@=#=$=%=&=*===",
"-=;=>=o+,='=)=!=~={=]=^=/=(=_=:=<=[=}=|=1=2=3=4=5=6=7=8=9=0=a=b=",
"c=d=e=p@f=g=h=i=j=/=k=l=m=n=o=p=q=r=s=t=u=v=w=x=y=z=A=B=C=D=E=F=",
"G=H=I=J=K=L=M=N=O=P=Q=R=S=T=U=V=W=X=Y=Z=`= -.-+-@-#-$-%-&-*-=---",
";->-,-'-)-!-~-{-]-^-/-(-_-:-<-[-}-|-1-2-3-4-5-+-6-7-8-9-0-a-b-c-"};
