/* XPM */
static char * new_xpm[] = {
"36 36 125 2",
"  	c None",
". 	c #A1A2A1",
"+ 	c #A4A4A4",
"@ 	c #A5A5A5",
"# 	c #A6A6A6",
"$ 	c #A6A7A6",
"% 	c #838383",
"& 	c #7D7D7D",
"* 	c #787878",
"= 	c #747474",
"- 	c #737474",
"; 	c #777877",
"> 	c #7B7C7C",
", 	c #828382",
"' 	c #5B5C5B",
") 	c #5A5C5B",
"! 	c #5A5B5A",
"~ 	c #5A5B5B",
"{ 	c #595A5A",
"] 	c #5D5E5D",
"^ 	c #3F413F",
"/ 	c #434443",
"( 	c #494A49",
"_ 	c #4A4C4A",
": 	c #494B49",
"< 	c #464746",
"[ 	c #484948",
"} 	c #424443",
"| 	c #303331",
"1 	c #343735",
"2 	c #383B38",
"3 	c #393C3A",
"4 	c #383B39",
"5 	c #373A39",
"6 	c #373A38",
"7 	c #353736",
"8 	c #E3E3E3",
"9 	c #F9F9F9",
"0 	c #F9F8F9",
"a 	c #D9D9D9",
"b 	c #333534",
"c 	c #313331",
"d 	c #272927",
"e 	c #2A2D2A",
"f 	c #292D2A",
"g 	c #2A2E2B",
"h 	c #2A2D2B",
"i 	c #282B28",
"j 	c #E9E9E9",
"k 	c #FFFFFF",
"l 	c #DDDEDD",
"m 	c #242825",
"n 	c #272A27",
"o 	c #1D211E",
"p 	c #202421",
"q 	c #1E221F",
"r 	c #DCDCDC",
"s 	c #1A1F1B",
"t 	c #1E211E",
"u 	c #151A16",
"v 	c #171C18",
"w 	c #DBDCDB",
"x 	c #121613",
"y 	c #161A17",
"z 	c #0F1310",
"A 	c #0F1410",
"B 	c #0E130F",
"C 	c #0C110D",
"D 	c #DADADA",
"E 	c #080D09",
"F 	c #0A0E0B",
"G 	c #0B100C",
"H 	c #0A100C",
"I 	c #262A26",
"J 	c #505351",
"K 	c #4F5250",
"L 	c #EDEDED",
"M 	c #E7E8E7",
"N 	c #4D504E",
"O 	c #515451",
"P 	c #202420",
"Q 	c #0A0C08",
"R 	c #080B07",
"S 	c #646564",
"T 	c #FEFEFE",
"U 	c #0A0A09",
"V 	c #0A0B09",
"W 	c #080907",
"X 	c #515251",
"Y 	c #0A0909",
"Z 	c #080707",
"` 	c #646464",
" .	c #515151",
"..	c #0A0709",
"+.	c #0A0809",
"@.	c #646364",
"#.	c #515051",
"$.	c #080607",
"%.	c #626162",
"&.	c #FBFAFB",
"*.	c #FBFBFB",
"=.	c #504E4F",
"-.	c #090708",
";.	c #0C0A0B",
">.	c #0F0D0E",
",.	c #EFEFEF",
"'.	c #DCDBDB",
").	c #0B090A",
"!.	c #DAD9DA",
"~.	c #040203",
"{.	c #090809",
"].	c #0A0708",
"^.	c #BFC0BF",
"/.	c #D2D1D2",
"(.	c #B3B3B3",
"_.	c #050304",
":.	c #070506",
"<.	c #020001",
"[.	c #010000",
"}.	c #070606",
"|.	c #030203",
"1.	c #060506",
"2.	c #070607",
"3.	c #030303",
"4.	c #000000",
"                                                                        ",
"                                                                        ",
"                                                                        ",
"                                                                        ",
"                                                                        ",
"                  . + @ # $ $ $ $ $ $ $ $ $ $ # @ + .                   ",
"              % & * = - - - - - - - - - - - - - - - ; > ,               ",
"            ' ) ! ' ~ { { { { { { { { { { { { { { ~ ' ! ! ]             ",
"            ^ / ( _ _ : : : ( < < < < < [ : : : : _ _ : } ^             ",
"            | 1 2 3 4 4 5 6 7 8 9 0 0 9 a b 6 5 4 4 3 2 1 c             ",
"            d e f g h e e e i j k k k k l m e e e h g f e n             ",
"            o p p p p p p p q j k k k k r s p p p p p p p t             ",
"            u v v v v v v v u j k k k k w x v v v v v v v y             ",
"            z A A A B B B B C j k k k k D E B B B B A A A B             ",
"            F G H I J J J J K L k k k k M N J J J O P G G F             ",
"            Q Q R S k k k k k k T k k T k k k k k k O Q Q Q             ",
"            U V W S k k k k k k k k k k k k k k k k X V V U             ",
"            Y Y Z ` k k k k k k k k k k k k k k k k  .Y Y Y             ",
"            ..+.Z @.k k k k k k k k k k k k k k k k #.+.+...            ",
"            +.+.$.%.&.9 9 9 9 k k k k k T 9 9 9 9 *.=.+.+.+.            ",
"            +.+.-.;.>.>.>.>.>.,.k k k k '.+.>.>.>.>.).+.+.+.            ",
"            +.+.+.+.+.+.+.+.$.j k k k k !.~.+.+.+.+.+.+.+.+.            ",
"            +.+.+.+.+.+.+.+.$.j k k k k !.~.+.+.+.+.+.+.+.+.            ",
"            {.].+.+.+.+.+.+.$.j k k k k !.~.+.+.+.+.+.+.{.+.            ",
"            -.+.+.+.+.+.+.+.$.j k k k k !.~.+.+.+.+.+.+.+.-.            ",
"            -.+.+.+.+.+.+.+.-.^././././.(._.+.+.+.+.+.+.+.-.            ",
"            :.-.+.+.+.+.+.+.+.<.[.[.[.[.<.+.+.+.+.+.+.+.-.}.            ",
"              :.-.-.+.+.+.+.+.+.+.+.+.+.+.+.+.+.+.+.-.-.}.              ",
"              |.1.}.2.$.$.$.$.$.$.$.$.$.$.$.$.$.$.2.}.1.3.              ",
"                    4.4.4.4.4.4.4.4.4.4.4.4.4.4.4.4.                    ",
"                                                                        ",
"                                                                        ",
"                                                                        ",
"                                                                        ",
"                                                                        ",
"                                                                        "};
