/* XPM */
static char * papa_xpm[] = {
"33 33 196 2",
"  	c #FFFFFF",
". 	c #F0EFEF",
"+ 	c #9C9A9B",
"@ 	c #918F90",
"# 	c #9D9B9B",
"$ 	c #8E8C8D",
"% 	c #8D8B8B",
"& 	c #918F8F",
"* 	c #949292",
"= 	c #8F8D8E",
"- 	c #7A7778",
"; 	c #6B6869",
"> 	c #666464",
", 	c #726F70",
"' 	c #E9E8E9",
") 	c #B6B5B5",
"! 	c #908E8F",
"~ 	c #E5E4E4",
"{ 	c #F3F4F4",
"] 	c #7F7C7D",
"^ 	c #F7F6F6",
"/ 	c #FEFEFE",
"( 	c #FBFBFB",
"_ 	c #FAFAFA",
": 	c #F8F8F8",
"< 	c #EDEDED",
"[ 	c #DEDDDE",
"} 	c #504D4D",
"| 	c #878485",
"1 	c #9C9A9A",
"2 	c #4B4748",
"3 	c #434041",
"4 	c #464243",
"5 	c #484546",
"6 	c #413E3E",
"7 	c #5F5C5D",
"8 	c #6D6A6B",
"9 	c #939192",
"0 	c #979596",
"a 	c #716F6F",
"b 	c #8C8A8A",
"c 	c #A8A7A7",
"d 	c #C6C5C5",
"e 	c #D4D3D3",
"f 	c #E5E5E5",
"g 	c #F7F7F7",
"h 	c #A5A3A4",
"i 	c #747272",
"j 	c #DADADA",
"k 	c #AFAEAE",
"l 	c #8C8B8B",
"m 	c #7D7B7C",
"n 	c #959393",
"o 	c #CBCACA",
"p 	c #EFEFEF",
"q 	c #7B7879",
"r 	c #2B2728",
"s 	c #343031",
"t 	c #595656",
"u 	c #CAC9C9",
"v 	c #DDDCDD",
"w 	c #D2D1D1",
"x 	c #A2A0A1",
"y 	c #636060",
"z 	c #2A2627",
"A 	c #6A6768",
"B 	c #B1B0B0",
"C 	c #332F30",
"D 	c #1D191A",
"E 	c #898788",
"F 	c #EAEAEA",
"G 	c #767474",
"H 	c #282324",
"I 	c #BDBCBC",
"J 	c #FDFDFD",
"K 	c #BEBCBE",
"L 	c #4F4C4D",
"M 	c #757374",
"N 	c #878585",
"O 	c #231F20",
"P 	c #C6C5C6",
"Q 	c #878586",
"R 	c #929091",
"S 	c #DCDBDC",
"T 	c #595657",
"U 	c #F6F6F5",
"V 	c #F2F2F2",
"W 	c #464344",
"X 	c #989596",
"Y 	c #676464",
"Z 	c #BBBABA",
"` 	c #A6A4A5",
" .	c #292526",
"..	c #F9F8F8",
"+.	c #2E2B2C",
"@.	c #454142",
"#.	c #BBB9B9",
"$.	c #E9E9E9",
"%.	c #524F50",
"&.	c #F9F9F9",
"*.	c #7E7B7D",
"=.	c #E2E1E2",
"-.	c #FAF9F9",
";.	c #807E7E",
">.	c #E8E8E8",
",.	c #A8A6A6",
"'.	c #727071",
").	c #CDCCCC",
"!.	c #7D7A7B",
"~.	c #D6D6D6",
"{.	c #DDDDDD",
"].	c #4C4849",
"^.	c #E2E2E2",
"/.	c #F1F1F1",
"(.	c #494646",
"_.	c #C9C8C8",
":.	c #858283",
"<.	c #999798",
"[.	c #E8E7E7",
"}.	c #B2B0B1",
"|.	c #828080",
"1.	c #BDBBBB",
"2.	c #B5B3B4",
"3.	c #A9A7A8",
"4.	c #EBEAEB",
"5.	c #B0AFAF",
"6.	c #AAA9AA",
"7.	c #ECECEC",
"8.	c #C4C3C3",
"9.	c #7C7A7A",
"0.	c #575454",
"a.	c #F4F3F4",
"b.	c #F0F0F0",
"c.	c #EEEDED",
"d.	c #5A5758",
"e.	c #FCFCFC",
"f.	c #737171",
"g.	c #322E30",
"h.	c #DBDADA",
"i.	c #CFCECF",
"j.	c #D2D1D2",
"k.	c #FEFDFD",
"l.	c #5D5A5B",
"m.	c #E7E6E6",
"n.	c #F3F3F3",
"o.	c #636161",
"p.	c #706E6E",
"q.	c #C7C6C6",
"r.	c #E5E4E5",
"s.	c #ACABAB",
"t.	c #E4E3E3",
"u.	c #363233",
"v.	c #D6D5D5",
"w.	c #DFDEDE",
"x.	c #C9C9C9",
"y.	c #F9F8F9",
"z.	c #A6A5A5",
"A.	c #959394",
"B.	c #868484",
"C.	c #C4C4C4",
"D.	c #D5D5D5",
"E.	c #9F9E9E",
"F.	c #A4A3A3",
"G.	c #ADACAC",
"H.	c #A19FA0",
"I.	c #BCBABB",
"J.	c #C2C1C1",
"K.	c #B0AFB0",
"L.	c #B8B7B8",
"M.	c #F4F4F4",
"N.	c #5A5757",
"O.	c #E1E0E0",
"P.	c #C8C8C8",
"Q.	c #625F5F",
"R.	c #EEEEEE",
"S.	c #6F6C6D",
"T.	c #3C393A",
"U.	c #F1F0F0",
"V.	c #E6E5E6",
"W.	c #8A8888",
"X.	c #A09E9E",
"Y.	c #CAC9CA",
"Z.	c #2A2728",
"`.	c #282425",
" +	c #8B8889",
".+	c #BAB8B9",
"++	c #5B595A",
"@+	c #3A3738",
"#+	c #6C696A",
"$+	c #D0D0D0",
"%+	c #C5C4C4",
"&+	c #8E8B8C",
"*+	c #2C2829",
"=+	c #242020",
"-+	c #474444",
";+	c #949293",
"                                                                  ",
"                                                                  ",
"                . + @ # $ % & * = - ; > , ' ) ! ~                 ",
"              { ] ^               / ( _ : < [ } |                 ",
"                1 2 3 4 5 6 7 8 9 0 a b c d e f _                 ",
"                                                                  ",
"                                                                  ",
"                                                                  ",
"                    g h i j k l m n o p                           ",
"                  q r s t q u v w x y z A :                       ",
"              B C D E                 F G H I J                   ",
"            k K L M                       N O P                   ",
"              Q R                           i C                   ",
"            S T U                           V W X                 ",
"            Y Z                               `  .                ",
"          ..+.                                  @.#.              ",
"          $.%.    &.*.=.              -.;.>.    ,.'.              ",
"          ).!.    J ~.g               {.].^.    /.(.              ",
"          _.:.                                    <.[.            ",
"          }.|.                                    1.{.            ",
"          2.3.          4.5.        6.            < 7.            ",
"          8.9           f 9.      p 0.            a.b.            ",
"          c.d.          e.f.i <.A g.h.            i.j.            ",
"          k.l.      m./.  n.R o.p.q.    r.7.      s.t.            ",
"            u.).  g `   v.^ :   w.  x.  y.z.      A.'             ",
"            #.B.  ( C.D.+ 2.5.E.F.G.H.I.J.K.    L.# :             ",
"            M.N.O.                            n.z.P.              ",
"              c Q.                          R.S.c                 ",
"                % T.Z /                 U.V.W.X.                  ",
"                  Y.Z.`. +>.      e..+++@+#+g                     ",
"                    / $+%+&+s *+=+O `.-+;+                        ",
"                          J V.$.                                  ",
"                                                                  "};
