/* XPM */
static char * steveFacialIcon_xpm[] = {
"32 32 758 2",
"  	c None",
". 	c #754332",
"+ 	c #754232",
"@ 	c #6F3F2E",
"# 	c #6D3D2C",
"$ 	c #6C3C2B",
"% 	c #6A3D2D",
"& 	c #6C3B2A",
"* 	c #6A3B2C",
"= 	c #6E3C2C",
"- 	c #744131",
"; 	c #703F31",
"> 	c #6D3A2A",
", 	c #6F402F",
"' 	c #774231",
") 	c #6D3B2B",
"! 	c #6C3826",
"~ 	c #693928",
"{ 	c #6E3B28",
"] 	c #6D3927",
"^ 	c #6B3926",
"/ 	c #6B3927",
"( 	c #6C3927",
"_ 	c #6C3926",
": 	c #6C3827",
"< 	c #6F3927",
"[ 	c #713A27",
"} 	c #6E3A28",
"| 	c #6E3725",
"1 	c #774534",
"2 	c #7B4536",
"3 	c #703F30",
"4 	c #713F2F",
"5 	c #6E3F2F",
"6 	c #703D2C",
"7 	c #6D3E2E",
"8 	c #713F2E",
"9 	c #734231",
"0 	c #723F2F",
"a 	c #7E4B3A",
"b 	c #91594A",
"c 	c #7E4A3A",
"d 	c #794434",
"e 	c #713C2E",
"f 	c #6C3925",
"g 	c #6F3D2B",
"h 	c #6F3A27",
"i 	c #6D3A28",
"j 	c #6E3926",
"k 	c #703A27",
"l 	c #6F3B28",
"m 	c #733A28",
"n 	c #6E3A26",
"o 	c #6D3A27",
"p 	c #723927",
"q 	c #744434",
"r 	c #774435",
"s 	c #6B3E2F",
"t 	c #6C3C2C",
"u 	c #6A3C2D",
"v 	c #6E3E2E",
"w 	c #6C3E2F",
"x 	c #6B3D2E",
"y 	c #734534",
"z 	c #9A6A57",
"A 	c #945E4B",
"B 	c #6D3124",
"C 	c #6D3727",
"D 	c #763E33",
"E 	c #693629",
"F 	c #673827",
"G 	c #6B3626",
"H 	c #6B3826",
"I 	c #6A3626",
"J 	c #6E3A27",
"K 	c #6D3926",
"L 	c #693825",
"M 	c #6A3524",
"N 	c #703B28",
"O 	c #703624",
"P 	c #734333",
"Q 	c #744233",
"R 	c #6F3D2D",
"S 	c #6E3D2F",
"T 	c #6C3E2E",
"U 	c #6E3F2E",
"V 	c #6C3D2C",
"W 	c #7B4A3A",
"X 	c #BB8A72",
"Y 	c #A87861",
"Z 	c #7C3E2E",
"` 	c #682D21",
" .	c #6D372B",
"..	c #733C2F",
"+.	c #703B27",
"@.	c #683926",
"#.	c #663827",
"$.	c #673725",
"%.	c #6B3726",
"&.	c #693623",
"*.	c #6A3526",
"=.	c #6A3726",
"-.	c #6C3726",
";.	c #734232",
">.	c #774332",
",.	c #703E2E",
"'.	c #6F3F2F",
").	c #6E3E2D",
"!.	c #6D4030",
"~.	c #6E3D2D",
"{.	c #6C3A2D",
"].	c #8E5846",
"^.	c #A36C57",
"/.	c #955041",
"(.	c #8D4B40",
"_.	c #803F37",
":.	c #6D372C",
"<.	c #6F392A",
"[.	c #723C2F",
"}.	c #6C3B2C",
"|.	c #693827",
"1.	c #693725",
"2.	c #6C3928",
"3.	c #6A3828",
"4.	c #6D3928",
"5.	c #6F3427",
"6.	c #6E3927",
"7.	c #734030",
"8.	c #734132",
"9.	c #6E4031",
"0.	c #6C3F2F",
"a.	c #6D3F2F",
"b.	c #6C3C2D",
"c.	c #6F3E2F",
"d.	c #6F3D2E",
"e.	c #8B5343",
"f.	c #813F2F",
"g.	c #6E2518",
"h.	c #833E33",
"i.	c #8B4A41",
"j.	c #84443B",
"k.	c #70392D",
"l.	c #693B2C",
"m.	c #734335",
"n.	c #714032",
"o.	c #6E3B29",
"p.	c #673727",
"q.	c #6D3826",
"r.	c #6E3827",
"s.	c #714233",
"t.	c #6D3C2D",
"u.	c #6E3D2E",
"v.	c #6F3B2D",
"w.	c #844C39",
"x.	c #753728",
"y.	c #681D11",
"z.	c #6D2517",
"A.	c #78372C",
"B.	c #87483C",
"C.	c #734539",
"D.	c #583227",
"E.	c #5C3429",
"F.	c #703C30",
"G.	c #6F4131",
"H.	c #6A3C2B",
"I.	c #673624",
"J.	c #693624",
"K.	c #693626",
"L.	c #683625",
"M.	c #734131",
"N.	c #744231",
"O.	c #6E4130",
"P.	c #6D3D2E",
"Q.	c #6C3D2F",
"R.	c #6E3E2F",
"S.	c #854938",
"T.	c #7B362A",
"U.	c #6F2F1F",
"V.	c #7A3728",
"W.	c #6A2F25",
"X.	c #703B2E",
"Y.	c #764236",
"Z.	c #613B30",
"`.	c #523126",
" +	c #533429",
".+	c #674032",
"++	c #704232",
"@+	c #6F3E2C",
"#+	c #693A29",
"$+	c #6B3929",
"%+	c #673928",
"&+	c #683726",
"*+	c #673626",
"=+	c #6E3826",
"-+	c #6D3827",
";+	c #6F3E30",
">+	c #6C3D2D",
",+	c #754635",
"'+	c #925F4B",
")+	c #864A36",
"!+	c #B67D69",
"~+	c #C08370",
"{+	c #965949",
"]+	c #6C3A2B",
"^+	c #673D31",
"/+	c #653D32",
"(+	c #55352A",
"_+	c #533228",
":+	c #603C30",
"<+	c #6B4437",
"[+	c #6E4334",
"}+	c #683A2B",
"|+	c #693926",
"1+	c #6D372A",
"2+	c #6F3B27",
"3+	c #6A3A2A",
"4+	c #6A3C2C",
"5+	c #6D3C2C",
"6+	c #6B3D2D",
"7+	c #6D3D2D",
"8+	c #784535",
"9+	c #7D4A39",
"0+	c #9E6453",
"a+	c #E7B8A3",
"b+	c #E7B5A0",
"c+	c #DB9B85",
"d+	c #A96F5B",
"e+	c #724237",
"f+	c #603B31",
"g+	c #563429",
"h+	c #4F2D20",
"i+	c #492A1F",
"j+	c #4A2A1F",
"k+	c #4C2D22",
"l+	c #513127",
"m+	c #4D3026",
"n+	c #583125",
"o+	c #5F3525",
"p+	c #663726",
"q+	c #6A3926",
"r+	c #693A28",
"s+	c #6E3828",
"t+	c #6C3829",
"u+	c #6C3B2D",
"v+	c #6E3B2C",
"w+	c #673B2D",
"x+	c #6C392C",
"y+	c #6F3E2D",
"z+	c #6F4031",
"A+	c #653627",
"B+	c #B6816F",
"C+	c #E5B59F",
"D+	c #BC8973",
"E+	c #B27863",
"F+	c #C58872",
"G+	c #AC7363",
"H+	c #885649",
"I+	c #7A4E3E",
"J+	c #6F4334",
"K+	c #5C382C",
"L+	c #4D2E24",
"M+	c #482A1F",
"N+	c #41271C",
"O+	c #3D241B",
"P+	c #3B231A",
"Q+	c #42271D",
"R+	c #5E3323",
"S+	c #6A3A29",
"T+	c #723B2B",
"U+	c #6B3A27",
"V+	c #6B3B2C",
"W+	c #6A3B2D",
"X+	c #693A2B",
"Y+	c #6B3E2E",
"Z+	c #6C4031",
"`+	c #734130",
" @	c #A5705D",
".@	c #D19983",
"+@	c #AF7B65",
"@@	c #6F3B29",
"#@	c #6A3825",
"$@	c #8B5545",
"%@	c #AC6E5C",
"&@	c #B16A55",
"*@	c #965C4B",
"=@	c #6C4235",
"-@	c #4F3025",
";@	c #41261B",
">@	c #372119",
",@	c #3F261C",
"'@	c #40261C",
")@	c #573022",
"!@	c #6F3D2C",
"~@	c #6D3B29",
"{@	c #6D3B2D",
"]@	c #693A2D",
"^@	c #74402E",
"/@	c #714130",
"(@	c #6E402F",
"_@	c #854F3C",
":@	c #CA927F",
"<@	c #DA9D87",
"[@	c #A1604C",
"}@	c #733C29",
"|@	c #5F3120",
"1@	c #71402E",
"2@	c #A7644F",
"3@	c #9B634F",
"4@	c #683E32",
"5@	c #44271D",
"6@	c #392219",
"7@	c #37231C",
"8@	c #3E271F",
"9@	c #4B322A",
"0@	c #492A20",
"a@	c #5A3223",
"b@	c #703D2A",
"c@	c #6B3C2D",
"d@	c #6B382A",
"e@	c #70402F",
"f@	c #724131",
"g@	c #754231",
"h@	c #71402F",
"i@	c #633829",
"j@	c #885949",
"k@	c #CC9781",
"l@	c #DD9981",
"m@	c #B06C57",
"n@	c #845646",
"o@	c #83523F",
"p@	c #88513E",
"q@	c #9D5E4B",
"r@	c #A76754",
"s@	c #7A4A3A",
"t@	c #43281E",
"u@	c #382119",
"v@	c #422A22",
"w@	c #513C35",
"x@	c #513931",
"y@	c #4A2A1E",
"z@	c #5F3221",
"A@	c #743E2B",
"B@	c #6F3926",
"C@	c #713D2A",
"D@	c #6E3B2A",
"E@	c #724032",
"F@	c #754230",
"G@	c #754130",
"H@	c #6F4637",
"I@	c #744F43",
"J@	c #BC8C77",
"K@	c #D28B72",
"L@	c #A96652",
"M@	c #6C5148",
"N@	c #8B6B5F",
"O@	c #9B6050",
"P@	c #A1624F",
"Q@	c #AA6754",
"R@	c #8F5748",
"S@	c #573428",
"T@	c #482F26",
"U@	c #4E3731",
"V@	c #554139",
"W@	c #4A3028",
"X@	c #45291D",
"Y@	c #733D2A",
"Z@	c #723D2A",
"`@	c #753E2B",
" #	c #693B2A",
".#	c #6F4030",
"+#	c #724231",
"@#	c #6F4130",
"##	c #703F2E",
"$#	c #6D3E2F",
"%#	c #845F4E",
"&#	c #CB907A",
"*#	c #CC8069",
"=#	c #AD6B59",
"-#	c #82574A",
";#	c #93695B",
">#	c #9F6956",
",#	c #A36350",
"'#	c #9E6450",
")#	c #6A4135",
"!#	c #533A33",
"~#	c #554038",
"{#	c #543F38",
"]#	c #492C21",
"^#	c #522C1F",
"/#	c #75402D",
"(#	c #713B29",
"_#	c #733C28",
":#	c #713C2A",
"<#	c #724130",
"[#	c #6E3D2C",
"}#	c #6D3C2B",
"|#	c #6C3D30",
"1#	c #5F3425",
"2#	c #855444",
"3#	c #D2937C",
"4#	c #D38C75",
"5#	c #C17A64",
"6#	c #B37462",
"7#	c #B37463",
"8#	c #AB7561",
"9#	c #A97361",
"0#	c #AC6C58",
"a#	c #AA6955",
"b#	c #A66553",
"c#	c #714438",
"d#	c #573C36",
"e#	c #553C35",
"f#	c #4D342C",
"g#	c #492B20",
"h#	c #633423",
"i#	c #723E2C",
"j#	c #723F2D",
"k#	c #774433",
"l#	c #794632",
"m#	c #754333",
"n#	c #744232",
"o#	c #6C3B2E",
"p#	c #8B5C4D",
"q#	c #C89783",
"r#	c #D6957F",
"s#	c #C57D69",
"t#	c #BB7C6A",
"u#	c #C27A64",
"v#	c #CC846D",
"w#	c #CA9078",
"x#	c #C68C75",
"y#	c #BC7762",
"z#	c #B06A55",
"A#	c #A16859",
"B#	c #764E3E",
"C#	c #553227",
"D#	c #603F36",
"E#	c #694237",
"F#	c #633626",
"G#	c #6E3D2B",
"H#	c #713928",
"I#	c #7B4633",
"J#	c #744333",
"K#	c #794431",
"L#	c #764133",
"M#	c #6F3F30",
"N#	c #8F5D4D",
"O#	c #D4A18B",
"P#	c #DE9A82",
"Q#	c #C97C66",
"R#	c #BF7C6A",
"S#	c #BE806F",
"T#	c #C67C69",
"U#	c #D58E73",
"V#	c #D7967F",
"W#	c #D9947C",
"X#	c #C57B64",
"Y#	c #B66D58",
"Z#	c #A66F60",
"`#	c #7B4B3D",
" $	c #61382C",
".$	c #8C584A",
"+$	c #915E4F",
"@$	c #7A4432",
"#$	c #6C3A27",
"$$	c #733E2C",
"%$	c #75412F",
"&$	c #794433",
"*$	c #794635",
"=$	c #743C30",
"-$	c #B6816A",
";$	c #DA967E",
">$	c #CB7F69",
",$	c #BF7E6D",
"'$	c #C08472",
")$	c #C18273",
"!$	c #C87A63",
"~$	c #D48971",
"{$	c #DB977F",
"]$	c #DB967B",
"^$	c #C87C64",
"/$	c #B46D58",
"($	c #AB6F5F",
"_$	c #8F5C4E",
":$	c #855043",
"<$	c #965E4C",
"[$	c #9F6252",
"}$	c #854F3D",
"|$	c #6C3B29",
"1$	c #733D2B",
"2$	c #743F2C",
"3$	c #713E2C",
"4$	c #794533",
"5$	c #784437",
"6$	c #754334",
"7$	c #764334",
"8$	c #724133",
"9$	c #AA6953",
"0$	c #CF8068",
"a$	c #CC7B63",
"b$	c #C37E68",
"c$	c #BD7E6E",
"d$	c #BA7865",
"e$	c #BB725C",
"f$	c #CC8169",
"g$	c #D8947C",
"h$	c #D9947B",
"i$	c #C87860",
"j$	c #B46953",
"k$	c #A76D5D",
"l$	c #A16E60",
"m$	c #975D4E",
"n$	c #884B40",
"o$	c #9A5F4E",
"p$	c #864F3C",
"q$	c #753D2C",
"r$	c #753E2D",
"s$	c #76402D",
"t$	c #773D2C",
"u$	c #744335",
"v$	c #774533",
"w$	c #774133",
"x$	c #784135",
"y$	c #754134",
"z$	c #714031",
"A$	c #844F3B",
"B$	c #B46D59",
"C$	c #C1745D",
"D$	c #A35D47",
"E$	c #9C563E",
"F$	c #AC634D",
"G$	c #D2866F",
"H$	c #CF826A",
"I$	c #C67760",
"J$	c #B26853",
"K$	c #A56A5A",
"L$	c #A1695B",
"M$	c #995F4F",
"N$	c #8F5847",
"O$	c #945B49",
"P$	c #804631",
"Q$	c #76402C",
"R$	c #78422E",
"S$	c #78422D",
"T$	c #783F2D",
"U$	c #763D2C",
"V$	c #76412D",
"W$	c #784537",
"X$	c #744435",
"Y$	c #794235",
"Z$	c #744133",
"`$	c #764335",
" %	c #884C3B",
".%	c #A25B49",
"+%	c #AA5F48",
"@%	c #A96048",
"#%	c #AC624A",
"$%	c #BA6E55",
"%%	c #C07761",
"&%	c #BE7761",
"*%	c #BE755F",
"=%	c #BD7059",
"-%	c #AF6551",
";%	c #A36759",
">%	c #986152",
",%	c #855344",
"'%	c #8D5643",
")%	c #834B38",
"!%	c #7C422D",
"~%	c #7A432E",
"{%	c #7B412E",
"]%	c #77412D",
"^%	c #784436",
"/%	c #724335",
"(%	c #764336",
"_%	c #774134",
":%	c #6F3E31",
"<%	c #794331",
"[%	c #A95F49",
"}%	c #B86B53",
"|%	c #B46950",
"1%	c #AA634E",
"2%	c #9A5845",
"3%	c #A76A57",
"4%	c #BE7660",
"5%	c #B3684F",
"6%	c #AD644F",
"7%	c #A4685A",
"8%	c #825243",
"9%	c #5E3225",
"0%	c #7C432E",
"a%	c #77412E",
"b%	c #794535",
"c%	c #7B4736",
"d%	c #744334",
"e%	c #764534",
"f%	c #764231",
"g%	c #734234",
"h%	c #A1604D",
"i%	c #B56C56",
"j%	c #995742",
"k%	c #7F4936",
"l%	c #8E523F",
"m%	c #BA7763",
"n%	c #BA735D",
"o%	c #AB614A",
"p%	c #A4614E",
"q%	c #9C6454",
"r%	c #84503E",
"s%	c #65392C",
"t%	c #723F2C",
"u%	c #7D4531",
"v%	c #7A432D",
"w%	c #7C4430",
"x%	c #7B4835",
"y%	c #7D4737",
"z%	c #784534",
"A%	c #703F2F",
"B%	c #915C4D",
"C%	c #A86E5D",
"D%	c #824B3C",
"E%	c #8F5340",
"F%	c #B6705B",
"G%	c #BE7C69",
"H%	c #B36953",
"I%	c #A2624F",
"J%	c #935A49",
"K%	c #895644",
"L%	c #7E4E3C",
"M%	c #794430",
"N%	c #7B4530",
"O%	c #7C442F",
"P%	c #7E442F",
"Q%	c #79432E",
"R%	c #774536",
"S%	c #753F32",
"T%	c #7F4D40",
"U%	c #B57968",
"V%	c #B27666",
"W%	c #B5705C",
"X%	c #B7725C",
"Y%	c #AC634B",
"Z%	c #A4604A",
"`%	c #985F4B",
" &	c #814C3A",
".&	c #875747",
"+&	c #895A4B",
"@&	c #7D4734",
"#&	c #7A4430",
"$&	c #7F4431",
"%&	c #7D4431",
"&&	c #7E4632",
"*&	c #7F4633",
"=&	c #7B4533",
"-&	c #7B4837",
";&	c #754434",
">&	c #794534",
",&	c #764433",
"'&	c #A27062",
")&	c #BF7D6C",
"!&	c #B97662",
"~&	c #BB745E",
"{&	c #B56A54",
"]&	c #975F4B",
"^&	c #804A37",
"/&	c #774837",
"(&	c #89594A",
"_&	c #926050",
":&	c #7E4A37",
"<&	c #7A442F",
"[&	c #7D4633",
"}&	c #7E4531",
"|&	c #7B4634",
"1&	c #7A4636",
"2&	c #764434",
"3&	c #744437",
"4&	c #7A4634",
"5&	c #724031",
"6&	c #875341",
"7&	c #B57C68",
"8&	c #BE7D68",
"9&	c #B7705A",
"0&	c #A5634E",
"a&	c #985841",
"b&	c #874C37",
"c&	c #804937",
"d&	c #895746",
"e&	c #8E6354",
"f&	c #835644",
"g&	c #79422D",
"h&	c #7F4734",
"i&	c #7F4532",
"j&	c #814734",
"k&	c #7E4430",
"l&	c #764635",
"m&	c #754435",
"n&	c #774333",
"o&	c #935A47",
"p&	c #9D6350",
"q&	c #935945",
"r&	c #884D39",
"s&	c #824937",
"t&	c #834A38",
"u&	c #834937",
"v&	c #8A513C",
"w&	c #8A5946",
"x&	c #926252",
"y&	c #8A5D4F",
"z&	c #7B4733",
"A&	c #804834",
"B&	c #7C4431",
"C&	c #7A4736",
"D&	c #814A37",
"E&	c #7B4735",
"F&	c #7A4735",
"G&	c #794736",
"H&	c #784434",
"I&	c #784736",
"J&	c #7A4433",
"K&	c #7A4635",
"L&	c #7D4432",
"M&	c #804733",
"N&	c #814835",
"O&	c #864C38",
"P&	c #864C37",
"Q&	c #894C37",
"R&	c #8F5641",
"S&	c #9E624D",
"T&	c #966556",
"U&	c #8E6559",
"V&	c #875744",
"W&	c #824B37",
"X&	c #844A36",
"Y&	c #834935",
"Z&	c #834835",
"`&	c #854936",
" *	c #804732",
".*	c #7C4938",
"+*	c #794634",
"@*	c #794737",
"#*	c #7A4533",
"$*	c #7B4534",
"%*	c #784634",
"&*	c #7C4636",
"**	c #7E4735",
"=*	c #874C38",
"-*	c #854B36",
";*	c #8F543E",
">*	c #A56A56",
",*	c #9A6555",
"'*	c #94675A",
")*	c #836256",
"!*	c #795043",
"~*	c #7D4836",
"{*	c #804936",
"]*	c #7F4834",
"^*	c #844834",
"/*	c #844835",
". + @ # $ % & * = - ; > , ' ) ! ~ { ] ^ / ( _ ! : < [ } ^ ! } | ",
"1 2 3 4 5 6 7 8 - 9 0 a b c d e f g h i j ! ] k l m } n _ o j p ",
"q r s t t u v w , x y z A B C D } E F G H I ^ o J l K L I M N O ",
"P Q R S # T 7 , U V W X Y Z `  ...+.@.#.$.%.%.&.^ _ K ^ *.=.k -.",
";.>.,.'.7 7 ).!.~.{.].^./.(._.:.<.[.}.|.1.L L %.H 2.3.4.^ I 5.6.",
"7.8.9.0.a.b.c.~.~.d.e.f.g.h.i.j.k.l.m.n.o.p.L L I =.H H =.I q.r.",
"8.s.a.'.d.,.t.u.b.v.w.x.y.z.A.B.C.D.E.F.G.H.I.J.=.K.^ K.G L.r.%.",
"M.N.v O.P.u.Q.~.~.R.S.T.U.V.W.X.Y.Z.`. +.+++@+#+$+%+&+&+*+*+=+-+",
"R ;+>+b.t s ).t t ,+'+)+!+~+{+]+^+/+(+`._+:+<+[+5 }+|+|+F @.1+2+",
"l.R 3+4+5+6+u 7+V 8+9+0+a+b+c+d+e+f+g+h+i+j+k+l+m+n+o+p+q+r+s+t+",
"u+v+w+x+4+* t y+z+5+A+B+C+D+E+F+G+H+I+J+K+L+M+N+O+P+Q+R+K S+T+U+",
"V+V+W+X+4+l.Y+Z+`+R..  @.@+@@@#@$@%@&@*@=@-@;@>@,@'@N+)@!@~@@@j ",
"X+{@W+X+]@5+U ^@/@N.(@_@:@<@[@}@|@1@2@3@4@5@6@7@8@9@0@a@b@l l j ",
"c@~.d@V $ b.e@f@g@h@i@j@k@l@m@n@o@p@q@r@s@t@u@v@w@x@y@z@A@B@C@} ",
"D@@ t t Q.E@F@+ + G@H@I@J@K@L@M@N@O@P@Q@R@S@T@U@V@W@X@%+Y@Z@`@N ",
"}+i  #l.7+w .#+#@###$#%#&#*#=#-#;#>#,#Q@'#)#!#~#{#]#^#o /#(#_#:#",
"'.<###y+[#}#Q.|#3.1#2#3#4#5#6#7#8#9#0#a#b#c#d#e#f#g#h#i#Y@j#/#J ",
"k#l#m#>.n#m#n#n#o#p#q#r#s#t#u#v#w#x#y#z#A#B#C#D#E#F#{ N G#N :#H#",
"1 I#J#k#K#m#L#M#N#O#P#Q#R#S#T#U#V#W#X#Y#Z#`# $.$+$@$#$J `@$$%$i ",
"&$*$k#m#m#1 =$r -$;$>$,$'$)$!$~${$]$^$/$($_$:$<$[$}$|$1$/#2$A@3$",
"4$5$m#m#6$7$L#8$9$0$a$b$c$d$e$f$g$h$i$j$k$l$m$n$o$p$A@q$r$i#s$t$",
"u$v$w$6$6$x$y$z$A$B$C$B$D$E$F$^$G$H$I$J$K$L$M$N$O$P$Q$R$S$T$U$V$",
"v$W$m#X$Y$m#Z$`$;  %.%+%@%#%$%%%&%*%=%-%;%>%,%'%)%!%~%~%~%S${%]%",
"5$^%m#/%m#m#(%_%;.:%<%[%}%|%1%2%3%4%5%6%7%8%9%$$0%~%~%~%~%R$0%a%",
"b%c%X$d%e%f%k#m#Y$z$g%h%i%j%k%l%m%n%o%p%q%r%s%t%~%0%u%v%~%~%w%~%",
"x%y%+ m#m#1 m#z%;.Q A%B%C%D%E%F%G%H%+%I%J%K%L%M%~%~%~%N%N%O%P%Q%",
"*$x%R%u$e%r m#J#1 1 S%T%U%V%W%y#X%Y%Z%`% &.&+&@&~%~%N%#&$&%&&&*&",
"=&-&;&m#m#m#m#k#>&,&m#(%'&)&!&~&{&F$]&^&/&(&_&:&~%~%<&[&w%Q%}&w%",
"|&1&2&d%3&X$m#m#&$4&m#5&6&7&8&9&0&a&b&c& &d&e&f&g&~%*&h&i&0%j&k&",
"c%x%l&l&. m&g@n&k#k#m#w$2&o&p&q&r&s&t&u&v&w&x&y&z&u%A&}&B&%&k&i&",
"C&D&E&F&G&H&>&I&*$E&J&|&K&L&M&N&O&b&P&Q&R&S&T&U&V&W&X&Y&Z&M&`& *",
"c%.*E&+*@*1 z%#*B&*$|&$*%*&*J&**N&=*=*-*;*>*,*'*)*!*~*{*{*]*^*/*"};
