/* XPM */
static char *xpm_[] = {
/* columns rows colors chars-per-pixel */
"64 64 203 2 ",
"   c #361F17",
".  c #362017",
"X  c #36211A",
"o  c #3C241B",
"O  c #3E2923",
"+  c #671E11",
"@  c #42271C",
"#  c #45291E",
"$  c #4A2A1E",
"%  c #532D1F",
"&  c #5C2D1C",
"*  c #662214",
"=  c #6B2215",
"-  c #6D2719",
";  c #652A1D",
":  c #722E1F",
">  c #65301E",
",  c #452B22",
"<  c #4B2C22",
"1  c #522E21",
"2  c #49312A",
"3  c #4C332B",
"4  c #523125",
"5  c #5C3325",
"6  c #55352A",
"7  c #5A352A",
"8  c #55382F",
"9  c #5C392E",
"0  c #4E3832",
"q  c #533B34",
"w  c #5C3B32",
"e  c #563E39",
"r  c #6C2D23",
"t  c #742E22",
"y  c #782F22",
"u  c #643524",
"i  c #6A3626",
"p  c #663827",
"a  c #6B3926",
"s  c #63362B",
"d  c #6A3629",
"f  c #643A2C",
"g  c #6C3C2C",
"h  c #753223",
"j  c #713A27",
"k  c #73352C",
"l  c #723D2B",
"z  c #7B3B2C",
"x  c #633C32",
"c  c #6D3E31",
"v  c #713F31",
"b  c #7B3D33",
"n  c #554139",
"m  c #6F402F",
"M  c #74402E",
"N  c #7A432E",
"B  c #664033",
"V  c #6C4233",
"C  c #694438",
"Z  c #6E493C",
"A  c #754333",
"S  c #7C4533",
"D  c #774837",
"F  c #7D4936",
"G  c #734539",
"H  c #7B463A",
"J  c #754A3D",
"K  c #7D4B3A",
"L  c #7E503F",
"P  c #784E42",
"I  c #6A544C",
"U  c #7F5345",
"Y  c #785649",
"T  c #7F655B",
"R  c #823C2E",
"E  c #803F36",
"W  c #81432F",
"Q  c #824633",
"!  c #884537",
"~  c #834936",
"^  c #8A4C36",
"/  c #83453C",
"(  c #844D3B",
")  c #8A4D3B",
"_  c #904F3E",
"`  c #83503E",
"'  c #8B513C",
"]  c #96543D",
"[  c #824E41",
"{  c #8C4A41",
"}  c #914F42",
"|  c #855343",
" . c #8C5543",
".. c #865946",
"X. c #8D5946",
"o. c #8B5648",
"O. c #865B4A",
"+. c #8C5B4C",
"@. c #925542",
"#. c #9B5642",
"$. c #935945",
"%. c #9A5B45",
"&. c #905749",
"*. c #935B4B",
"=. c #9A5D4C",
"-. c #835D51",
";. c #8C5F51",
":. c #915E50",
">. c #9A5F50",
",. c #A35B44",
"<. c #A95F47",
"1. c #A45E49",
"2. c #AA5F48",
"3. c #96624E",
"4. c #9C614E",
"5. c #856253",
"6. c #8E6154",
"7. c #86665B",
"8. c #8C6359",
"9. c #926152",
"0. c #9C6454",
"q. c #9E6955",
"w. c #9A6759",
"e. c #95695B",
"r. c #9D6A5A",
"t. c #A86047",
"y. c #A3624E",
"u. c #AB624C",
"i. c #B1654E",
"p. c #B3694F",
"a. c #A46553",
"s. c #AA6653",
"d. c #A46955",
"f. c #AC6955",
"g. c #A36758",
"h. c #A46C5C",
"j. c #AB6D5B",
"k. c #B16651",
"l. c #B46A53",
"z. c #BA6C55",
"x. c #B46D59",
"c. c #BB6F59",
"v. c #A5715C",
"b. c #AD725E",
"n. c #BB7057",
"m. c #B4725D",
"M. c #BB735D",
"N. c #966E60",
"B. c #A36F61",
"V. c #AA7262",
"C. c #AB7A64",
"Z. c #A67C68",
"A. c #AB7E6A",
"S. c #B47563",
"D. c #BB7661",
"F. c #B47B66",
"G. c #BC7A65",
"H. c #B47A6B",
"J. c #BC7D6B",
"K. c #C2745D",
"L. c #C47761",
"P. c #C47B64",
"I. c #CB7C64",
"U. c #C27C6A",
"Y. c #CA7E68",
"T. c #D07E66",
"R. c #AF816F",
"E. c #B3836A",
"W. c #BE826E",
"Q. c #BD8272",
"!. c #B78874",
"~. c #BD8B74",
"^. c #C5826B",
"/. c #CD836B",
"(. c #D1846C",
"). c #D2886F",
"_. c #C18374",
"`. c #C28B75",
"'. c #C98B73",
"]. c #C78F7A",
"[. c #D38671",
"{. c #D48B73",
"}. c #C49079",
"|. c #CC947D",
" X c #D59176",
".X c #D89177",
"XX c #D5937B",
"oX c #DA937B",
"OX c #DC997F",
"+X c #CB9985",
"@X c #D69780",
"#X c #D39B85",
"$X c #DB9B82",
"%X c #D59D89",
"&X c #DA9E8A",
"*X c #D3A28C",
"=X c #DDA28C",
"-X c #DDAB95",
";X c #E2A48C",
":X c #E3AA94",
">X c #E6B7A1",
",X c #E9B9A4",
"<X c #EFC1AC",
/* pixels */
"A A A c g g g a a g g f a g f a g g v l c g f i p g l l g i i i p i a a a p p a p p p p a a i i p i i j j j a a a a i i a j j > ",
"g F S A A m m m g m m g g g g v l v A A A v l M A K H F v l a j a g m j j j a j j j j j j a a j j j j j j j l j a a a j a l j j ",
"c F ~ A A M M A M V l M m m M A A A A A v A A K  .&.| ~ S S k l j a M m l j j l j j a j j j j j j l z j l j j j j a j j a N N : ",
"A F H A c g g g g g g g g g g g l v A g l v K  .*.o.K v v A A g a a a a a a a p a i i i p a a j j a j a a a a a a i p a > j j a ",
"V F H A g g g g g g m g g m g V m m V g m D O.3.9.' z i i l b v j i d p p a i i i a i a a a a a a j a g a a a u i i i j j j j : ",
"A A A A V c g g g g f g m g g m m m g g m L r.C.v. .k ; r g c b l g d d p p i i i a i i a a a j j a j j a j a a i i > i a l j a ",
"c F A v l g g c m g g g g m m m m m m p m | C.~.E.3.Q r ; d k c v k j a p a p p a u i a a a a > a a a a a a a a i i a i j j j i ",
"V A A A v c v g g g V g m g m m m g g m A +.E.~.E.q.) z r r d d v l l j a p i p a u i i i i a a a a j a a j a a i i i i a j l > ",
"A A A A A c V l m g m g m g V l c g d c K 3.b.C.g.1.} { E k k s g l v l g d i i i u a a a u a i a a i g g a i i a a i i i h j a ",
"c A F l g l v g c g g c g m g V l g g v | =.4.$.! R ! { { E b d d k k v v g g p a a a u a a a i i i i j i i j g a i i i i k j i ",
"v A A v c V V g m g g g g g l g g g g A | *.) R y y R { { { { b v d g c G A v c a p p p a a a a i i i a i a a i a i i i i j j i ",
"l A A v V l g m g V g c v v g c c l d A ( ) Q y + = y E / { { b b d f p c v A v M l p i u a u a i i i i a i a a i i i i i j j i ",
"v A A v g V g m c v l c g g c g c g g A ( ( R : = + - y z E ! { H c s 4 s s c b A g p p u a a p a i i p i a i i i i u i i j i i ",
"v A A V m m A g l g c l g v c l g g g k Q ~ z i + + + - t k b [ P c s 4 4 7 s c V m m m a u > a i i i i a a i p i i i i i j j i ",
"l A S l V g g M c g g c c g g c c g g v S ! R h * * - t r d v b b v x 7 4 4 4 w V V A m m a u u i i p p i p u i i u i u i j j i ",
"v A A V M g V V g m c l g c l g l g g A ( ) R k z Q ! Q k r d g G G c w 6 4 4 6 9 B V V m m m m g g p g i p p a i p p i i j j i ",
"g v v c g g g c g g m g m g g g g g m K X.X.Q Q =.j.V.s.@.b d f c c c x 6 6 6 6 6 9 B C Z V V A M m g a a a p a p a a p d k j a ",
"g l v g g c g g g g g B g m g g g g m L 3.X.( %.E.%X&X].F.=.~ g x x x w 6 6 < 1 < 4 4 9 B B V B x g f f p p a p p p a p i g l a ",
"f g v g g f g g g g g m g f m g g g A K | ` ' h.+X,X,X:X&X^.d.| c x w w 6 4 1 $ $ $ < < 4 6 8 7 6 7 5 s p p p p a p a p d l g d ",
"g g l g a g g f g g f g g m g g g m A A M F *.Q.>X<X,X-X=X$X'.b.&.G c x 9 7 4 % < < $ $ $ # < < , , < 1 1 5 u p a a g p i j j i ",
"d g c g f f d c f g g f g g g g g V A a p l 0.+X>X>X*X}.}.'.|.'.S.:.[ P Z V g 9 7 4 < < $ # @ # @ o o o # < 5 u a a p g g z a p ",
"g c l d g g g d g g g g g g m M m A c p 5 v 0.+X-X-X~.v.3.a.b.G.H.V.w.&.X.| L D B 9 6 < , $ @ o o o o o o @ % u a j g a i l l a ",
"f g c d d g f g f g g g m f g V M V g g a D w.~.%X#X~.3.F M N ` *.d.V.x.f.a.=.| D w 6 < $ o o   o o o o o @ % 5 g g g a a l j a ",
"d v l f c f g d g g f g g m m V A M A c A K X.b.`.#X].v.F > & > c | 9.f.l.l.a.X.J f 4 < @ o X X o # # # # # % 5 a M j g a l j a ",
"f g v g d g g g g g g g g m M M m m A M m m D =.Q.%X&X`.a.S j > 5 p V ' y.p.d.X.G 7 < @ o o X X o o 3 , , $ % 5 a M j a a j j a ",
"d g g d f c f d d x g g m m m M M A A m m m N 3.W.*X:XoXG.,.~ M u > p N $.s.y.3.K 9 $ o . . X O O 2 3 3 < $ 1 p a M M a a M j a ",
"f v v g g d g g g g g g m m M V A M A g p p D q.~.=X;XoXP.y. .| F D S ( $.y.d.4.` f < o . X o O 2 n 8 3 < $ 1 u j M j j j M M > ",
"g g v a g d g g g g c g m M A M M A M m f B J e.!.#X$X{.M.4...Y O.X.X.$.=.y.s.s.X.G 4 o o o , 2 0 n n 3 $ $ & a M j j a a M M a ",
"g l M g g g g g c c c A M A A A A M A A V Z J -.A.+XXX/.M.=.Y I T e.0.=.=.y.f.a.*.H 9 , , , 2 0 n n 0 < # $ 5 a j M j l j N j j ",
"a g m g g g g g g g v v A M M A A A M M D V Z Y A.|. X/.n.*.P I T N.0.=.y.a.s.s.a.| c 4 3 3 0 q n q 3 , # $ u m M j M j j M M a ",
"f g g a f g g g g c c V V A A A V M A M M V Z 5.R.XX{.Y.M.>.U Y 7.e.r.a.y.y.s.f.s.X.G 8 8 q q n n q 3 $ $ & u M M l l j j j M j ",
"p g l a a g g f g g g g g m m m m m m u p G O.Z.].XX/.L.M.g.:.;.e.r.q.q.a.a.a.s.d.3.K B q q n n n 0 , $ $ 5 a j N l l j N j l a ",
"g m M m g m g g g g g g g g g c g i u 5 d O.V.@X@X[.Y.D.S.m.j.h.v.B.h.h.d.f.d.f.f.>.P x e e e e 0 < , $ 1 p m j M j a M j N j a ",
"g A A m m M m M m l g l c c c c g u 5 c ..V.@X$XXXY.P.G.S.S.G.J.F.F.F.C.m.j.f.f.f.>.[ c w 8 8 q q 3 < % > a j M j M M M M M l a ",
"A A N N A A M A M A A A A v A v d f c O.Z.+X&X@X[.U.J.G.D.P.^.^.`.`.~.^.G.x.f.f.g.0...C 7 4 8 q w 9 5 5 u j j a m m j j M j l : ",
"A S D D A A A S A A A A A A A v v H :.R.+X&X$XY.P.J.J.J.P.U./.{. X|.|.'.^.M.l.x.j.w...B 7 6 x P P G g a a M j M a j M a a M M a ",
"A S F A A A S A S A A A A b v v H 9.!.*X;X$XT.Y.U.J.Q.J.U.Y.). XXX@X@X{.^.K.x.x.V.g...c 7 x J o.+.| F l g a a j j j M j M M j p ",
"A D F N A A A A N A A A A v c A  .A.*X;X;XT.Y.U.U.J.Q.U.U.Y.)..XXX$X$X.X/.K.c.x.V.r.o.G f v o.0.w.*.( M j a a l M N l M M M M a ",
"A S F A A S A A A A F A b c c ( q.}.&XOX{.Y.U.J.J._._.U.P.Y.(..XoX$XOX.X(.K.c.x.x.h.:.[ H [ *.0.g.=. .F l a j M M M l l l l M a ",
"A S F A A A A A A A A A A k c ( v.'.oX).T.U.U._._.`._._.L.I.(.{.oX$XOX.X/.K.z.j.V.B.w.:.o.o. .=.=.0. .F M p j M N l N l l N M M ",
"A S H A A A A A A A H A A b g K a.W.).(.T.I.Y.W._._.U.J.G.L./.).XX$X$X.XT.K.z.l.j.B.B.w.>.o.{ { *.4.X.~ M j l l l M M l l N N z ",
"A F H A A A A A v H v A A v c H ' p.K.T.T.K.P.G.G.S.S.x.l.c.L./.{.oXoX{.I.K.z.s.f.B.B.B.g.&.[  .=.=.' F N l M z M z l l l N z g ",
"V H F A A A H v H v A v b v v A L %.x.L.L.L.D.x.k.y.,.<.1.l.K./.[.{.{.(.I.K.x.k.f.B.B.g.0.*. . .*.%.^ N M N M N N l z l l N N l ",
"A A A A A b A A A A b H A G A c N ` 4.l.n.c.z.s.<.] ] ] 2.l.K././.(.I.I.L.K.l.k.g.g.g.w.>.=.*.*.*. .~ N j N N N N N M N l z N l ",
"A A H A A A G A b A A A H v A v v A ) %.u.i.i.2.<.,.,.<.p.n.K.Y.Y.P.L.K.K.c.k.k.g.g.w.0.*.&.*.X.' ( W N N N N N N N N l N N N l ",
"A F H A A A A A H A A A v A H A v v b ( { %.,.2.t.i.i.p.z.n.M.m.m.m.D.M.c.z.k.s.g.g.>.o.P K ( ' ~ S N N N N N N N N N N z N N M ",
"A H H A A A A V A A A A H v A b A v v v A ) ,.2.p.p.z.p.l.k.u.y.a.b.M.K.z.p.i.s.g.g.*.P c d l S W N N N N N N N N N N M N N N M ",
"A H H A A A A G A A A A v H v H A A v c l S #.l.z.z.p.u.y.#._ @.4.m.F.K.z.t.2.s.g.g.o.D 5 1 i M N N N N N N N N N N N N N W N M ",
"A S K A A A A A A A A M S A A A H b v c c H $.k.z.l.2.%.' ( ~ @.f.G.G.c.i.2.1.a.a.0.X.D s 5 p M N N W N N N N N N N N N N Q N N ",
"A K ~ A A G A G D A A S A A A A A A A v c F &.s.x.s.#.( S F ) a.S.U.D.l.u.t.1.a.0.9. .K V m M N N N N N N ~ N N N N N N N N N N ",
"A F ~ F A A A A A A S D A A A A A A A A g A  .w.f.g.{ F S @.a.x.J.J.M.k.2.2.y.y.=.*. .| K D N N N N N N N N N F F N N Q N W N N ",
"F F H A A A A A A A A A A A F A A v A v v A [ 0.V.B.+.( @.y.x.P.U.M.l.u.u.t.y.4.*. . .....K D N N N N N N N N N N N N N N Q N N ",
"A F F A F G A G A A A H A A A A F A A A b v H ;.V.H.V.g.f.x.D.G.D.m.p.t.t.y.y.3. .( | O.+.| K N N N N N N N N N W N S N N ~ ~ N ",
"A F F F A A A A D A A A A A A A A A F A A v v o.V.J.J.J.M.S.M.D.M.l.u.u.t.4.3.' F K | +.;...( N N N N N N F F N S Q N Q N ~ ~ N ",
"A S K A A D A A A A A A A A A S A S F A A v v [ N.H.J.U.D.S.M.M.n.k.i.u.y.3.' K D D | +.3.+.` N N N N N N N F N N Q N N N Q N N ",
"F S K S A A A A A A A A A A A A A F A A F v v H :.V.J.J.G.D.D.M.x.k.u.y.3.' ` N D K | 6.9.;.` F N N N N F N ~ N N S N N N ~ ~ N ",
"A F ~ A A D A A G A A A A A A A S A D S A A v A L 0.F.W.W.G.M.n.l.y.t.$.' ( K F F ` ` ;.3.5...` N N N N N ~ S Q Q S N N Q ~ Q N ",
"S F K A A A G A G A A G A A A A A S S A A A v A F  .h.F.G.D.m.f.y.%.] ' ^ ~ ~ ~ ~ ` ' ;.8.9.O.L N N N N Q S Q F Q N N W N ~ Q N ",
"A K F S D A A D A A A A A A A A A A A S A A A b A K *.d.j.d.a.3.@.' ( ~ ~ ( ~ ( ' ` ..X.3.3.;.| F N N F F ~ N Q S N Q N N Q Q N ",
"S F F D D A D A A A G A M A A S S A A A A A A A v F L ] $.$.' ^ ~ ~ ~ ~ ~ ~ ~ ~ ' ' X.X.;.8.8.O.L N Q N ~ N ~ N W S N S N Q Q S ",
"A F ~ F S A D A A A A G A A A D A A S A S A S A A A S Q ~ ~ ~ S F ~ ~ ~ ~ ~ ^ ~ ' X.%.3.9.6.8.-...D F N ~ F ~ S Q Q Q N Q ~ ~ N ",
"A ( ( F F K F F F K S S S F F D F F F F S S S F Q K S S F W ~ ~ ^ ' ^ ' ' ^ ^ ' ' %.y.q.w.r.e.e.3...` ' ~ ^ ~ ^ ~ ~ ~ ~ ~ ^ ^ N ",
"A ( ( F ~ F F F F K D S D S F S S S F F F S F S F F ~ S S S F ~ ~ ^ ' ^ ' ^ ^ ' ' %.y.v.d.e.e.e.5.O.U L F ~ ~ ~ ~ ~ ~ ~ ~ ^ ^ Q ",
"A F K A D A A A G A A A G N A N N S A A A S A S A A H A S A S S S F ~ ~ ~ ~ F Q ` ] a.d.0.9.6.e.7.T Y J D F F F F F F N W ~ ~ Q "
};
